<svg width="36" height="36" viewBox="0 0 36 36" fill="none" xmlns="http://www.w3.org/2000/svg">
<path d="M17.524 0.666528C16.1926 0.65732 14.8652 0.8112 13.5712 1.12473V22.5789C13.5679 22.787 13.4834 22.9856 13.3357 23.1323C13.188 23.279 12.9889 23.3622 12.7807 23.3642H11.1981C11.1204 23.3647 11.0434 23.35 10.9715 23.3207C10.8995 23.2913 10.8341 23.2481 10.779 23.1934C10.7238 23.1387 10.6801 23.0736 10.6502 23.0019C10.6204 22.9302 10.605 22.8532 10.605 22.7756V2.04038C7.47476 3.34076 4.79835 5.53673 2.91166 8.3527C1.02496 11.1687 0.0120324 14.4792 0 17.8687C0.0172207 20.1587 0.486285 22.4227 1.3803 24.531C2.27431 26.6392 3.57569 28.5503 5.20981 30.1546C6.84393 31.7589 8.77865 33.0249 10.903 33.8799C13.0274 34.7349 15.2997 35.1622 17.5896 35.1373C19.8708 35.1623 22.1346 34.7368 24.251 33.8851C26.3674 33.0334 28.2949 31.7722 29.9229 30.174C31.5509 28.5758 32.8474 26.6719 33.738 24.5715C34.6286 22.4711 35.0958 20.2156 35.1128 17.9343C35.0558 13.3166 33.1742 8.90905 29.8788 5.67383C26.5834 2.4386 22.1419 0.638507 17.524 0.666528ZM17.1947 25.0643C17.1923 25.2554 17.115 25.4379 16.9794 25.5725C16.8438 25.7071 16.6607 25.7831 16.4697 25.784H14.8871C14.696 25.7831 14.513 25.7071 14.3774 25.5725C14.2418 25.4379 14.1645 25.2554 14.1621 25.0643V14.1406C14.1645 13.9495 14.2418 13.767 14.3774 13.6324C14.513 13.4978 14.696 13.4218 14.8871 13.4208H16.4697C16.6607 13.4218 16.8438 13.4978 16.9794 13.6324C17.115 13.767 17.1923 13.9495 17.1947 14.1406V25.0643ZM20.7518 26.1111C20.7494 26.3022 20.6721 26.4846 20.5365 26.6193C20.4009 26.7539 20.2178 26.8298 20.0268 26.8308H18.4442C18.2531 26.8298 18.0701 26.7539 17.9345 26.6193C17.7989 26.4846 17.7216 26.3022 17.7192 26.1111V13.0945C17.7216 12.9035 17.7989 12.721 17.9345 12.5864C18.0701 12.4518 18.2531 12.3758 18.4442 12.3748H20.0268C20.2178 12.3758 20.4009 12.4518 20.5365 12.5864C20.6721 12.721 20.7494 12.9035 20.7518 13.0945V26.1111ZM24.3089 24.1517C24.3065 24.3427 24.2292 24.5252 24.0936 24.6598C23.958 24.7944 23.775 24.8704 23.5839 24.8714H22.0058C21.8147 24.8704 21.6317 24.7944 21.4961 24.6598C21.3605 24.5252 21.2832 24.3427 21.2808 24.1517V15.1873C21.2832 14.9963 21.3605 14.8138 21.4961 14.6792C21.6317 14.5446 21.8147 14.4686 22.0058 14.4676H23.5884C23.7795 14.4686 23.9625 14.5446 24.0981 14.6792C24.2337 14.8138 24.311 14.9963 24.3134 15.1873L24.3089 24.1517Z" fill="#FF005C"/>
</svg>
